<?xml version="1.0" standalone="no"?>
<!DOCTYPE svg PUBLIC "-//W3C//DTD SVG 20010904//EN"
 "http://www.w3.org/TR/2001/REC-SVG-20010904/DTD/svg10.dtd">
<svg version="1.0" xmlns="http://www.w3.org/2000/svg"
 width="1176.000000pt" height="369.000000pt" viewBox="0 0 1176.000000 369.000000"
 preserveAspectRatio="xMidYMid meet">

<g transform="translate(0.000000,369.000000) scale(0.100000,-0.100000)"
fill="#000000" stroke="none">
<path d="M955 3463 c-212 -25 -351 -118 -437 -294 -74 -147 -71 -104 -75
-1169 -3 -641 -1 -965 6 -983 l11 -27 134 0 c124 0 136 2 146 19 7 13 10 331
10 961 0 842 2 948 17 1007 31 126 115 194 239 195 115 1 191 -57 236 -177
l23 -60 3 -959 c2 -669 6 -964 14 -973 15 -19 261 -18 276 0 8 9 12 302 14
973 l3 959 23 60 c45 120 121 176 237 176 115 0 181 -46 227 -158 l23 -58 5
-970 c3 -533 9 -976 13 -983 11 -17 268 -17 285 0 9 9 12 237 12 967 0 909 -1
960 -20 1044 -30 137 -72 216 -162 308 -44 44 -157 110 -211 123 -217 51 -384
11 -519 -124 l-69 -69 -32 37 c-85 98 -186 155 -302 172 -71 10 -76 10 -130 3z"/>
<path d="M9672 3418 c-17 -17 -17 -2399 0 -2416 17 -17 249 -17 266 0 17 17
17 2399 0 2416 -8 8 -52 12 -133 12 -81 0 -125 -4 -133 -12z"/>
<path d="M3180 2764 c-152 -25 -231 -62 -311 -144 -94 -97 -150 -220 -152
-338 l-2 -67 137 -3 137 -3 6 28 c28 136 61 190 139 227 47 22 160 23 213 1
55 -23 100 -71 123 -132 16 -43 20 -78 20 -177 l0 -123 -182 -6 c-120 -4 -203
-12 -242 -22 -341 -93 -483 -445 -314 -778 58 -115 176 -206 328 -251 66 -20
235 -22 306 -5 125 30 248 115 312 217 17 26 43 83 59 127 l28 80 0 460 -1
460 -27 80 c-61 182 -193 313 -357 353 -52 13 -184 22 -220 16z m308 -1181
c-3 -161 -5 -182 -25 -219 -47 -88 -130 -129 -247 -122 -92 6 -150 37 -194
104 -56 84 -58 228 -4 306 62 90 110 106 315 107 l159 1 -4 -177z"/>
<path d="M4570 2764 c-150 -22 -245 -69 -331 -162 -72 -79 -104 -140 -130
-247 -18 -75 -19 -123 -19 -711 0 -477 3 -633 12 -642 8 -8 53 -12 134 -12
116 0 124 1 138 22 14 20 16 99 16 653 1 679 0 669 54 740 53 69 157 99 257
75 41 -10 63 -24 99 -59 77 -78 74 -48 78 -765 2 -439 6 -644 14 -653 14 -18
249 -18 266 -1 9 9 12 168 12 655 0 599 -1 648 -19 711 -27 99 -63 163 -132
237 -112 119 -290 182 -449 159z"/>
<path d="M5960 2764 c-90 -15 -143 -30 -200 -59 -144 -74 -244 -223 -269 -400
-14 -96 -13 -96 142 -93 l131 3 19 70 c36 138 102 196 226 196 39 0 81 -3 93
-7 50 -15 109 -66 135 -117 25 -48 28 -63 31 -188 l4 -136 -184 -6 c-258 -8
-354 -39 -477 -152 -132 -122 -180 -306 -135 -508 44 -194 187 -341 381 -391
81 -21 252 -21 324 0 176 53 294 166 350 336 24 73 24 74 24 543 0 428 -2 475
-18 530 -56 182 -182 311 -351 359 -54 15 -184 27 -226 20z m310 -1159 c0
-167 -11 -222 -56 -281 -61 -81 -214 -110 -320 -60 -134 62 -185 259 -100 384
65 95 110 111 319 112 l157 0 0 -155z"/>
<path d="M7320 2764 c-61 -7 -152 -35 -205 -63 -66 -34 -176 -143 -208 -206
-61 -121 -62 -131 -62 -590 0 -309 3 -433 13 -468 62 -233 266 -397 496 -399
105 -1 219 40 265 96 7 9 18 16 23 16 6 0 8 -85 6 -222 -3 -221 -3 -223 -30
-268 -53 -91 -107 -120 -223 -120 -87 0 -126 14 -173 61 -45 44 -61 77 -78
162 -8 41 -22 77 -31 84 -26 20 -237 18 -257 -3 -30 -30 5 -207 65 -326 57
-113 189 -214 324 -247 69 -17 247 -15 318 4 143 38 264 137 324 267 58 126
58 123 58 973 0 724 -1 785 -18 845 -56 197 -184 332 -366 385 -50 15 -185 25
-241 19z m214 -314 c52 -31 84 -75 101 -135 14 -46 16 -113 13 -437 l-3 -383
-30 -54 c-39 -70 -88 -106 -168 -121 -124 -23 -226 26 -282 135 l-30 59 -3
364 c-3 344 -2 368 17 432 21 68 62 118 122 150 60 33 204 27 263 -10z"/>
<path d="M8630 2741 c-181 -58 -299 -179 -357 -367 -16 -54 -18 -101 -18 -514
0 -413 2 -460 18 -514 59 -192 181 -315 366 -370 113 -33 313 -16 415 36 169
86 261 228 291 449 9 72 -3 79 -141 79 -130 0 -154 -11 -154 -73 0 -46 -55
-152 -93 -181 -48 -36 -85 -47 -159 -47 -173 0 -246 94 -256 327 l-5 122 194
5 c155 4 206 9 254 24 183 60 299 172 351 339 25 82 25 249 0 324 -66 195
-190 317 -373 364 -83 22 -260 20 -333 -3z m324 -298 c81 -57 111 -131 104
-256 -4 -66 -9 -83 -35 -120 -36 -50 -82 -83 -134 -97 -21 -6 -107 -9 -191 -8
l-153 3 0 150 c0 119 4 161 19 205 20 59 63 112 111 137 74 39 214 32 279 -14z"/>
<path d="M10331 2716 c-9 -11 -11 -168 -8 -633 4 -673 1 -637 63 -768 32 -69
128 -170 199 -209 172 -96 384 -82 508 32 l27 26 0 -210 c0 -115 -5 -225 -10
-245 -13 -48 -46 -95 -93 -132 -33 -27 -46 -31 -122 -35 -167 -9 -243 54 -276
231 -6 34 -19 68 -27 74 -25 20 -236 18 -256 -3 -19 -18 -18 -11 -6 -98 35
-243 170 -412 373 -471 70 -20 248 -22 322 -4 92 22 198 87 262 159 37 42 92
153 110 226 17 64 18 145 18 1062 0 872 -2 994 -15 1002 -23 15 -243 13 -263
-2 -15 -12 -17 -66 -19 -618 l-3 -605 -29 -52 c-47 -84 -118 -123 -226 -123
-91 1 -173 47 -210 120 -37 73 -40 127 -40 703 0 425 -3 566 -12 575 -18 18
-252 16 -267 -2z"/>
</g>
</svg>
